<?xml version="1.0" encoding="utf-8"?>
<!-- Generator: Adobe Illustrator 19.2.0, SVG Export Plug-In . SVG Version: 6.00 Build 0)  -->
<svg version="1.1" id="Layer_1" xmlns="http://www.w3.org/2000/svg" xmlns:xlink="http://www.w3.org/1999/xlink" x="0px" y="0px"
	 viewBox="0 0 50 50" style="enable-background:new 0 0 50 50;" xml:space="preserve">
<style type="text/css">
	.st0{fill:#36BFCB;}
</style>
<g>
	<path class="st0" d="M47.7,11.3l-2.9-0.8c-0.1-0.5-0.3-0.9-0.6-1.4l1.5-2.6c0.5-0.9,0.7-1.8,0-2.5c-0.7-0.7-1.6-0.5-2.5,0l-2.6,1.5
		c-0.4-0.2-0.9-0.4-1.3-0.5l-0.8-2.9c-0.3-1-0.8-1.7-1.8-1.7c-1,0-1.5,0.8-1.8,1.7l-0.8,3c-0.4,0.1-0.8,0.3-1.2,0.5l-2.7-1.6
		c-0.9-0.5-1.8-0.7-2.5,0c-0.7,0.7-0.5,1.6,0,2.5l1.6,2.7c-0.2,0.4-0.4,0.8-0.5,1.2l-3.1,0.8c-1,0.3-1.8,0.8-1.8,1.8
		c0,1,0.8,1.5,1.8,1.7l3.1,0.8c0.1,0.4,0.3,0.8,0.5,1.2l-1.6,2.7c-0.5,0.9-0.7,1.8,0,2.5c0.7,0.7,1.6,0.5,2.5,0l2.7-1.6
		c0.4,0.2,0.8,0.4,1.2,0.5l0.8,3c0.3,1,0.8,1.8,1.8,1.8c1,0,1.5-0.8,1.8-1.8l0.8-2.9c0.5-0.1,0.9-0.3,1.3-0.5l2.6,1.5
		c0.9,0.5,1.8,0.7,2.5,0c0.7-0.7,0.5-1.6,0-2.5l-1.5-2.6c0.2-0.4,0.4-0.9,0.6-1.4l2.9-0.8c1-0.3,1.8-0.8,1.8-1.8
		C49.5,12.1,48.6,11.5,47.7,11.3z M37,16.5c-1.9,0-3.4-1.5-3.4-3.4s1.5-3.4,3.4-3.4c1.9,0,3.4,1.5,3.4,3.4
		C40.4,14.9,38.9,16.5,37,16.5z"/>
	<path class="st0" d="M31.6,31.3l-2.9-0.8c-0.1-0.4-0.2-0.8-0.3-1.2l2.1-2.1c0.7-0.7,1.1-1.6,0.6-2.4c-0.5-0.8-1.5-0.9-2.4-0.6
		L25.9,25c-0.3-0.3-0.6-0.6-0.9-0.9l0.8-2.9c0.2-1,0.2-1.9-0.6-2.4c-0.8-0.5-1.7,0-2.4,0.6l-2.1,2.1c-0.4-0.1-0.8-0.2-1.2-0.3
		l-0.8-2.9c-0.3-1-0.8-1.7-1.8-1.7s-1.5,0.8-1.8,1.7l-0.8,2.9c-0.4,0.1-0.8,0.2-1.2,0.3l-2.1-2.1c-0.7-0.7-1.6-1.1-2.4-0.6
		c-0.8,0.5-0.9,1.5-0.6,2.4l0.8,2.9C8.6,24.5,8.3,24.8,8,25l-2.9-0.8c-1-0.2-1.9-0.2-2.4,0.6c-0.5,0.8,0,1.7,0.6,2.4l2.1,2.1
		c-0.1,0.4-0.2,0.8-0.3,1.2l-2.9,0.8c-1,0.3-1.8,0.8-1.8,1.8c0,1,0.8,1.5,1.8,1.7l2.9,0.8c0.1,0.4,0.2,0.8,0.3,1.2l-2.1,2.1
		c-0.7,0.7-1.1,1.6-0.6,2.4c0.5,0.8,1.5,0.9,2.4,0.6L8,41.1c0.3,0.3,0.6,0.6,0.9,0.9l-0.8,2.9c-0.2,1-0.2,1.9,0.6,2.4
		c0.8,0.5,1.7,0,2.4-0.6l2.1-2.1c0.4,0.1,0.8,0.2,1.2,0.3l0.8,2.9c0.3,1,0.8,1.8,1.8,1.8s1.5-0.8,1.8-1.8l0.8-2.9
		c0.4-0.1,0.8-0.2,1.2-0.3l2.1,2.1c0.7,0.7,1.6,1.1,2.4,0.6c0.8-0.5,0.9-1.5,0.6-2.4L25,42c0.3-0.3,0.6-0.6,0.9-0.9l2.9,0.8
		c1,0.2,1.9,0.2,2.4-0.6c0.5-0.8,0-1.7-0.6-2.4l-2.1-2.1c0.1-0.4,0.2-0.8,0.3-1.2l2.9-0.8c1-0.3,1.8-0.8,1.8-1.7
		C33.3,32.1,32.5,31.6,31.6,31.3z M17,38c-2.8,0-5-2.2-5-5c0-2.8,2.2-5,5-5s5,2.2,5,5C21.9,35.8,19.7,38,17,38z"/>
</g>
</svg>
