<?xml version="1.0" encoding="utf-8"?>
<!-- Generator: Adobe Illustrator 19.2.0, SVG Export Plug-In . SVG Version: 6.00 Build 0)  -->
<svg version="1.1" id="Layer_1" xmlns="http://www.w3.org/2000/svg" xmlns:xlink="http://www.w3.org/1999/xlink" x="0px" y="0px"
	 viewBox="0 0 50 50" style="enable-background:new 0 0 50 50;" xml:space="preserve">
<style type="text/css">
	.st0{fill:#36BFCB;}
</style>
<path class="st0" d="M49.4,26.1c-1.8-1.8-4.1-3-6.5-3.6c-0.1,0-0.1-0.1-0.2-0.1h-0.2c-0.1,0-0.1,0-0.2,0.1c-0.7,0.4-1.7,0.6-2.7,0.6
	c-1,0-2-0.2-2.7-0.6c-0.1,0-0.1-0.1-0.2-0.1h-0.2c0,0-0.1,0-0.1,0c-1.1,0.3-2.1,0.6-3.1,1.1c-0.5,1.8-1.5,3.4-2.8,4.7h18.7
	c0.2,0,0.4-0.2,0.4-0.4v-1.5C49.5,26.3,49.5,26.2,49.4,26.1z M35.2,15c-0.2-0.5-0.2-1-0.2-1.5c0-2.6,2-4.8,4.5-4.8
	c2.5,0,4.5,2.1,4.5,4.8c0,0.5-0.1,1.1-0.2,1.5c0.3,0.1,0.5,0.4,0.5,0.7c0,0.4-0.3,0.8-0.8,0.8c0,0,0,0,0,0c-0.2,2.1-1.9,4.3-3.9,4.3
	c-2.1,0-3.8-2.1-3.9-4.3c0,0,0,0,0,0c-0.4,0-0.8-0.4-0.8-0.8C34.8,15.4,35,15.2,35.2,15z M19.4,28.3H0.9c-0.2,0-0.4-0.2-0.4-0.4
	v-1.5c0-0.1,0-0.2,0.1-0.3c1.9-1.8,4.2-3.1,6.7-3.7c0,0,0.1,0,0.1,0h0.2c0.1,0,0.1,0,0.2,0.1c0.7,0.4,1.7,0.6,2.7,0.6s2-0.2,2.7-0.6
	c0.1,0,0.1-0.1,0.2-0.1h0.2c0.1,0,0.1,0,0.2,0.1c0.9,0.2,1.8,0.6,2.7,1C17,25.2,18,27,19.4,28.3z M6.2,15C6.1,14.6,6,14,6,13.5
	c0-2.6,2-4.8,4.5-4.8c2.5,0,4.5,2.1,4.5,4.8c0,0.5-0.1,1.1-0.2,1.5c0.3,0.1,0.5,0.4,0.5,0.7c0,0.4-0.3,0.8-0.8,0.8c0,0,0,0,0,0
	c-0.2,2.1-1.9,4.3-3.9,4.3c-2.1,0-3.8-2.1-3.9-4.3c0,0,0,0,0,0c-0.4,0-0.8-0.4-0.8-0.8C5.8,15.4,6,15.2,6.2,15z M17.6,18.7
	c-0.3-0.8-0.4-1.7-0.4-2.6c0-4.5,3.4-8.1,7.7-8.1s7.7,3.6,7.7,8.1c0,0.9-0.1,1.8-0.4,2.6c0.5,0.2,0.8,0.7,0.8,1.3
	c0,0.8-0.6,1.4-1.3,1.4c0,0,0,0,0,0c-0.1,1.6-0.7,3.1-1.7,4.4c-0.1,0.2-0.3,0.4-0.4,0.5c-1.2,1.4-2.8,2.4-4.6,2.4
	c-1.7,0-3.2-0.8-4.4-2.1c-0.4-0.4-0.7-0.8-1-1.3c-0.7-1.2-1.2-2.6-1.3-3.9c0,0,0,0,0,0c-0.7,0-1.3-0.6-1.3-1.4
	C16.8,19.4,17.1,18.9,17.6,18.7z M41.7,37.2c0.1,0.1,0.2,0.3,0.2,0.5v2.6c0,0.4-0.3,0.7-0.7,0.7H8.5c-0.4,0-0.7-0.3-0.7-0.7v-2.6
	c0-0.2,0.1-0.4,0.2-0.5c3.2-3.1,7.1-5.3,11.4-6.3c0.1,0,0.1,0,0.2,0h0.3c0.1,0,0.2,0,0.3,0.1c1.2,0.7,3,1,4.7,1c1.7,0,3.4-0.4,4.7-1
	c0.1-0.1,0.2-0.1,0.3-0.1h0.4c0.1,0,0.2,0,0.3,0.1C34.7,32,38.6,34.2,41.7,37.2z"/>
</svg>
