<?xml version="1.0" encoding="utf-8"?>
<!-- Generator: Adobe Illustrator 19.2.0, SVG Export Plug-In . SVG Version: 6.00 Build 0)  -->
<svg version="1.1" id="Layer_1" xmlns="http://www.w3.org/2000/svg" xmlns:xlink="http://www.w3.org/1999/xlink" x="0px" y="0px"
	 viewBox="0 0 50 50" style="enable-background:new 0 0 50 50;" xml:space="preserve">
<style type="text/css">
	.st0{fill:#36BFCB;}
</style>
<path class="st0" d="M41,19.1c0,0.5-0.1,0.9-0.2,1.4c-1.2,8.3-7.7,14.3-15.5,14.3h-2.5l-0.5,0.5c1.8,3.3,5,5.4,8.7,5.4h2.5l5,5.3
	c0.3,0.3,0.8,0.5,1.2,0.5c0.2,0,0.4,0,0.6-0.1c0.6-0.3,1-0.9,1-1.6v-4.3c4.7-1,8.1-5.4,8.1-10.7C49.5,24.4,45.8,19.9,41,19.1z
	 M38.5,20.2c0.1-0.8,0.2-1.5,0.2-2.2c0-8-6-14.5-13.3-14.5H13.8C6.5,3.5,0.5,10,0.5,18c0,7.2,4.7,13.1,11,14.2v6.1
	c0,0.8,0.5,1.5,1.2,1.8c0.2,0.1,0.5,0.1,0.7,0.1c0.5,0,1-0.2,1.4-0.6l6.9-7.2h3.6C31.9,32.4,37.4,27.3,38.5,20.2z M10.1,13.5h18.7
	c0.5,0,0.9,0.5,0.9,1c0,0.6-0.4,1-0.9,1H10.1c-0.5,0-1-0.5-1-1C9.2,13.9,9.6,13.5,10.1,13.5z M21.3,22.9H10.1c-0.5,0-1-0.5-1-1
	c0-0.6,0.4-1,1-1h11.2c0.5,0,1,0.5,1,1C22.3,22.4,21.9,22.9,21.3,22.9z"/>
</svg>
