<?xml version="1.0" encoding="utf-8"?>
<!-- Generator: Adobe Illustrator 19.2.0, SVG Export Plug-In . SVG Version: 6.00 Build 0)  -->
<svg version="1.1" id="Layer_1" xmlns="http://www.w3.org/2000/svg" xmlns:xlink="http://www.w3.org/1999/xlink" x="0px" y="0px"
	 viewBox="0 0 50 50" style="enable-background:new 0 0 50 50;" xml:space="preserve">
<style type="text/css">
	.st0{fill:#36BFCB;}
</style>
<g>
	<path class="st0" d="M39.5,34.7c-0.8,0-1.5,0.7-1.5,1.5c-0.2,1-4.7,3.2-13,3.2c-8.3,0-12.9-2.3-13-3.2c0-0.8-0.7-1.5-1.5-1.5
		c-0.8,0-1.5,0.6-1.5,1.4v7.4c0,0.2,0,0.3,0.1,0.5c0.9,3.8,8.7,5.5,15.9,5.5s15-1.7,15.9-5.5c0.1-0.2,0.1-0.3,0.1-0.5l0-7.4
		C41,35.4,40.3,34.7,39.5,34.7z"/>
	<path class="st0" d="M39.5,20.1c-0.8,0-1.5,0.7-1.5,1.5c-0.2,1-4.7,3.2-13,3.2c-8.3,0-12.9-2.3-13-3.2c0-0.8-0.7-1.5-1.5-1.5
		c-0.8,0-1.5,0.6-1.5,1.4v7.4c0,0.2,0,0.3,0.1,0.5c0.9,3.8,8.7,5.5,15.9,5.5s15-1.7,15.9-5.5c0.1-0.2,0.1-0.3,0.1-0.5l0-7.4
		C41,20.8,40.3,20.1,39.5,20.1z"/>
	<path class="st0" d="M41,6.7c0-4.3-8.3-6.2-16-6.2c-7.7,0-16,1.9-16,6.2c0,0,0,0,0,0c0,0,0,0,0,0v7.3c0,0.2,0,0.3,0.1,0.5
		c0.9,3.8,8.7,5.5,15.9,5.5c7.2,0,15-1.7,15.9-5.5c0.1-0.2,0.1-0.3,0.1-0.5V6.7C41,6.8,41,6.8,41,6.7C41,6.7,41,6.7,41,6.7z M38,6.8
		c-0.2,1-4.7,3.2-13,3.2c-8.3,0-12.9-2.3-13-3.2c0,0,0,0,0-0.1c0-1,4.6-3.3,13-3.3C33.5,3.4,38,5.8,38,6.8C38,6.7,38,6.8,38,6.8z"/>
</g>
</svg>
