<?xml version="1.0" encoding="utf-8"?>
<!-- Generator: Adobe Illustrator 19.2.0, SVG Export Plug-In . SVG Version: 6.00 Build 0)  -->
<svg version="1.1" id="Layer_1" xmlns="http://www.w3.org/2000/svg" xmlns:xlink="http://www.w3.org/1999/xlink" x="0px" y="0px"
	 viewBox="0 0 50 50" style="enable-background:new 0 0 50 50;" xml:space="preserve">
<style type="text/css">
	.st0{fill:#36BFCB;}
</style>
<path class="st0" d="M47.7,9.7H11.5c-1,0-1.8,0.8-1.8,1.8v36.1c0,1,0.8,1.8,1.8,1.8h36.1c1,0,1.8-0.8,1.8-1.8V11.5
	C49.5,10.5,48.7,9.7,47.7,9.7z M45.8,45.8H13.4V13.4h32.5V45.8z M21.7,41.7c1,0,2.1-0.4,3-1c0.1-0.1,0.3-0.2,0.4-0.3
	c0.1,0,0.1-0.1,0.2-0.1c0.1-0.1,0.1-0.1,0.2-0.2c0,0,0.1-0.1,0.1-0.1c1.3-1.3,1.8-2.9,1.3-4.1V25.3l9.6-3v8.9c-0.1,0-0.1,0-0.2,0
	c-0.1,0-0.2,0-0.3,0c-1,0-2.1,0.4-3,1c-0.9,0.6-1.6,1.5-2,2.4c-0.4,1-0.3,2,0.2,2.8c0.5,0.8,1.4,1.2,2.5,1.2c1,0,2.1-0.4,3-1
	c0.9-0.6,1.6-1.5,2-2.4c0.1-0.3,0.2-0.6,0.2-0.8c0.2-0.7,0.2-1.3-0.1-1.8V19.1c0,0,0-0.1,0-0.1v-0.4c0-0.3-0.1-0.5-0.4-0.7
	c-0.2-0.2-0.5-0.2-0.8-0.1l-12.5,3.9c-0.4,0.1-0.6,0.5-0.6,0.8c0,2.2,0,4.4,0,6.6c0,1.8,0,3.6,0,5.4c-0.2,0-0.3,0-0.5,0
	c-1,0-2.1,0.4-3,1c-0.9,0.6-1.6,1.5-2,2.4c-0.4,1-0.3,2,0.2,2.8C19.7,41.3,20.6,41.7,21.7,41.7z M4.2,4.2h32.5v2.1h1.8h1.8v-4
	c0-1-0.8-1.8-1.8-1.8H2.3c-1,0-1.8,0.8-1.8,1.8v36.1c0,1,0.8,1.8,1.8,1.8h4v-1.8v-1.8H4.2V4.2z"/>
</svg>
