<?xml version="1.0" encoding="utf-8"?>
<!-- Generator: Adobe Illustrator 19.2.0, SVG Export Plug-In . SVG Version: 6.00 Build 0)  -->
<svg version="1.1" id="Layer_1" xmlns="http://www.w3.org/2000/svg" xmlns:xlink="http://www.w3.org/1999/xlink" x="0px" y="0px"
	 viewBox="0 0 50 50" style="enable-background:new 0 0 50 50;" xml:space="preserve">
<style type="text/css">
	.st0{fill:#36BFCB;}
</style>
<path class="st0" d="M40,15.4C40,6.9,33,0.1,24.5,0.1C15.9,0.1,9,6.9,9,15.4c0,2.8,0.8,5.4,2.1,7.7h0l13.4,26.9l13.4-26.9h0
	C39.2,20.9,40,18.2,40,15.4z M24.5,20c-3.6,0-6.5-2.9-6.5-6.5c0-3.6,2.9-6.5,6.5-6.5c3.6,0,6.5,2.9,6.5,6.5C31,17.1,28.1,20,24.5,20
	z"/>
</svg>
