<?xml version="1.0" encoding="utf-8"?>
<!-- Generator: Adobe Illustrator 19.2.0, SVG Export Plug-In . SVG Version: 6.00 Build 0)  -->
<svg version="1.1" id="Layer_1" xmlns="http://www.w3.org/2000/svg" xmlns:xlink="http://www.w3.org/1999/xlink" x="0px" y="0px"
	 viewBox="0 0 50 50" style="enable-background:new 0 0 50 50;" xml:space="preserve">
<style type="text/css">
	.st0{fill:#36BFCB;}
</style>
<path class="st0" d="M42.5,7l-6.5-6.5C35.6,0.2,35.2,0,34.8,0H8.8C7.9,0,7.1,0.8,7.1,2.4v24h3.4v-23H33v5.5c0,0.6,0.5,1,1,1h5.6
	v16.4H43V8.9C43,7.7,42.8,7.3,42.5,7z M15.2,22h20.1c0.4,0,0.7-0.3,0.7-0.7c0-0.4-0.3-0.7-0.7-0.7H15.2c-0.4,0-0.7,0.3-0.7,0.7
	C14.5,21.7,14.8,22,15.2,22z M15.2,15.7h20.1c0.4,0,0.7-0.3,0.7-0.7c0-0.4-0.3-0.7-0.7-0.7H15.2c-0.4,0-0.7,0.3-0.7,0.7
	C14.5,15.4,14.8,15.7,15.2,15.7z M16.2,36.6h-4c-0.6,0-1.1,0.5-1.1,1.1v3.9c0,0.6,0.5,1.1,1.1,1.1h4c0.6,0,1.1-0.5,1.1-1.1v-3.9
	C17.2,37.1,16.8,36.6,16.2,36.6z M41.5,35.7h-4.7c-0.6,0-1.1,0.5-1.1,1.1v4.6c0,0.6,0.5,1.1,1.1,1.1h4.7c0.6,0,1.1-0.5,1.1-1.1v-4.6
	C42.5,36.2,42.1,35.7,41.5,35.7z M31.7,41.4h-2.6c-0.6,0-1.1,0.5-1.1,1.1V45c0,0.6,0.5,1.1,1.1,1.1h2.6c0.6,0,1.1-0.5,1.1-1.1v-2.6
	C32.8,41.9,32.3,41.4,31.7,41.4z M10.7,33.6c0.6,0,1.1-0.5,1.1-1.1V30c0-0.6-0.5-1.1-1.1-1.1H8C7.5,29,7,29.4,7,30v2.6
	c0,0.6,0.5,1.1,1.1,1.1H10.7z M41.8,28.5h-1c-0.6,0-1.1,0.5-1.1,1.1v1c0,0.6,0.5,1.1,1.1,1.1h1c0.6,0,1.1-0.5,1.1-1.1v-1
	C42.8,29,42.3,28.5,41.8,28.5z M38.3,46.3h-1.6c-0.6,0-1.1,0.5-1.1,1.1v1.5c0,0.6,0.5,1.1,1.1,1.1h1.6c0.6,0,1.1-0.5,1.1-1.1v-1.5
	C39.4,46.7,38.9,46.3,38.3,46.3z M9.9,46.8H8.8c-0.6,0-1.1,0.5-1.1,1.1v1.1c0,0.6,0.5,1.1,1.1,1.1h1.2c0.6,0,1.1-0.5,1.1-1.1v-1.1
	C11,47.2,10.5,46.8,9.9,46.8z M23.4,43.7h-1.2c-0.6,0-1.1,0.5-1.1,1.1v1.1c0,0.6,0.5,1.1,1.1,1.1h1.2c0.6,0,1-0.5,1-1.1v-1.1
	C24.5,44.2,24,43.7,23.4,43.7z M35.7,28.5c0-0.6-0.5-1.1-1.1-1.1h-2.9c-0.6,0-1.1,0.5-1.1,1.1v2.8c0,0.6,0.5,1.1,1.1,1.1h2.9
	c0.6,0,1.1-0.5,1.1-1.1V28.5z M26.8,30.5h-6.2c-0.6,0-1.1,0.5-1.1,1.1v6.1c0,0.6,0.5,1.1,1.1,1.1h6.2c0.6,0,1.1-0.5,1.1-1.1v-6.1
	C27.8,30.9,27.4,30.5,26.8,30.5z"/>
</svg>
