<?xml version="1.0" encoding="utf-8"?>
<!-- Generator: Adobe Illustrator 19.2.0, SVG Export Plug-In . SVG Version: 6.00 Build 0)  -->
<svg version="1.1" id="Layer_1" xmlns="http://www.w3.org/2000/svg" xmlns:xlink="http://www.w3.org/1999/xlink" x="0px" y="0px"
	 viewBox="0 0 50 50" style="enable-background:new 0 0 50 50;" xml:space="preserve">
<style type="text/css">
	.st0{fill:#36BFCB;}
</style>
<path class="st0" d="M48,23.5c0-12.6-10.3-23-23-23S2,10.8,2,23.5c0,4,1,7.9,3,11.3v2.6c0,1.1,0.9,2.1,2.1,2.1H12
	c1.1,0,2.1-0.9,2.1-2.1V23.9c0-1.1-0.9-2.1-2.1-2.1H7.1c-0.3,0-0.6,0.1-0.9,0.2C7,12.2,15.1,4.6,25,4.6S43,12.2,43.8,22
	c-0.3-0.1-0.6-0.2-0.9-0.2H38c-1.1,0-2.1,0.9-2.1,2.1v13.5c0,1.1,0.9,2.1,2.1,2.1h1.8c-2.4,3.1-6.2,5.4-10.7,6.3
	c-0.4-0.6-1.1-1-1.9-1h-3.9c-1.3,0-2.4,1.1-2.4,2.4c0,1.3,1.1,2.4,2.4,2.4h3.9c1.1,0,2-0.8,2.3-1.8c5.6-1.1,10.2-4.2,12.8-8.3h0.6
	c1.1,0,2.1-0.9,2.1-2.1v-2.5C46.9,31.3,48,27.4,48,23.5z"/>
</svg>
