<?xml version="1.0" encoding="utf-8"?>
<!-- Generator: Adobe Illustrator 19.2.0, SVG Export Plug-In . SVG Version: 6.00 Build 0)  -->
<svg version="1.1" id="Layer_1" xmlns="http://www.w3.org/2000/svg" xmlns:xlink="http://www.w3.org/1999/xlink" x="0px" y="0px"
	 viewBox="0 0 50 50" style="enable-background:new 0 0 50 50;" xml:space="preserve">
<style type="text/css">
	.st0{fill:#36BFCB;}
</style>
<path class="st0" d="M25,0.5C11.5,0.5,0.5,11.5,0.5,25c0,13.5,11,24.5,24.5,24.5s24.5-11,24.5-24.5C49.5,11.5,38.5,0.5,25,0.5z
	 M25,44.3C14.4,44.3,5.7,35.6,5.7,25C5.7,14.4,14.4,5.7,25,5.7c10.6,0,19.3,8.7,19.3,19.3C44.3,35.6,35.6,44.3,25,44.3z M34.6,24
	h-9.3V10.8c0-0.8-0.6-1.5-1.5-1.5c-0.8,0-1.5,0.7-1.5,1.5V26c0,0.3,0.1,0.6,0.3,0.8c0.3,0.7,1,1.1,1.7,1.1h10.2
	c1.1,0,1.9-0.9,1.9-1.9C36.6,24.9,35.7,24,34.6,24z"/>
</svg>
