<?xml version="1.0" encoding="utf-8"?>
<!-- Generator: Adobe Illustrator 19.2.0, SVG Export Plug-In . SVG Version: 6.00 Build 0)  -->
<svg version="1.1" id="Layer_1" xmlns="http://www.w3.org/2000/svg" xmlns:xlink="http://www.w3.org/1999/xlink" x="0px" y="0px"
	 viewBox="0 0 50 50" style="enable-background:new 0 0 50 50;" xml:space="preserve">
<style type="text/css">
	.st0{fill:#36BFCB;}
</style>
<path class="st0" d="M35.2,23.9H14.5c-0.4,0-0.7,0.3-0.7,0.7c0,0.4,0.3,0.7,0.7,0.7h20.7c0.4,0,0.7-0.3,0.7-0.7
	C35.9,24.2,35.6,23.9,35.2,23.9z"/>
<path class="st0" d="M35.2,37.4H14.5c-0.4,0-0.7,0.3-0.7,0.7c0,0.4,0.3,0.7,0.7,0.7h20.7c0.4,0,0.7-0.3,0.7-0.7
	C35.9,37.7,35.6,37.4,35.2,37.4z"/>
<path class="st0" d="M35.2,30.7H14.5c-0.4,0-0.7,0.3-0.7,0.7c0,0.4,0.3,0.7,0.7,0.7h20.7c0.4,0,0.7-0.3,0.7-0.7
	C35.9,31,35.6,30.7,35.2,30.7z"/>
<path class="st0" d="M14.5,18.4h8.3c0.4,0,0.7-0.3,0.7-0.7c0-0.4-0.3-0.7-0.7-0.7h-8.3c-0.4,0-0.7,0.3-0.7,0.7
	C13.8,18.1,14.1,18.4,14.5,18.4z"/>
<path class="st0" d="M44.4,7.7L37,0.5C36.7,0.2,36.3,0,35.8,0H6.7c-1,0-1.8,0.8-1.8,1.7v46.5c0,1,0.8,1.7,1.8,1.7h36.5
	c1,0,1.8-0.8,1.8-1.7V9C44.9,8.5,44.7,8.1,44.4,7.7z M41.4,46.6h-33v-43h26.3V9c0,0.6,0.5,1,1.1,1h5.6V46.6z"/>
</svg>
